<svg xmlns="http://www.w3.org/2000/svg" viewBox="0 0 64 64"><rect width="64" height="64" fill="#09090f"/><circle cx="34" cy="10" r="0.3" fill="#9d65ff"/><circle cx="30" cy="14" r="0.3" fill="#9d65ff"/><circle cx="26" cy="18" r="1.9" fill="#9d65ff"/><circle cx="34" cy="18" r="0.5" fill="#9d65ff"/><circle cx="38" cy="18" r="0.8" fill="#9d65ff"/><circle cx="50" cy="18" r="0.9" fill="#9c9c9c"/><circle cx="54" cy="18" r="1.3" fill="#b2b2b2"/><circle cx="58" cy="18" r="0.9" fill="#9a9a9a"/><circle cx="30" cy="22" r="1.7" fill="#9d65ff"/><circle cx="34" cy="22" r="1.0" fill="#9d65ff"/><circle cx="38" cy="22" r="0.3" fill="#9d65ff"/><circle cx="46" cy="22" r="0.8" fill="#9d65ff"/><circle cx="50" cy="22" r="1.0" fill="#a0a0a0"/><circle cx="30" cy="26" r="1.6" fill="#9d65ff"/><circle cx="38" cy="26" r="0.6" fill="#9d65ff"/><circle cx="42" cy="26" r="1.4" fill="#9d65ff"/><circle cx="46" cy="26" r="1.4" fill="#9d65ff"/><circle cx="50" cy="26" r="0.7" fill="#919191"/><circle cx="6" cy="30" r="0.7" fill="#929292"/><circle cx="10" cy="30" r="1.1" fill="#a3a3a3"/><circle cx="22" cy="30" r="0.8" fill="#9d65ff"/><circle cx="26" cy="30" r="1.6" fill="#9d65ff"/><circle cx="30" cy="30" r="1.5" fill="#9d65ff"/><circle cx="34" cy="30" r="1.8" fill="#9d65ff"/><circle cx="38" cy="30" r="1.2" fill="#9d65ff"/><circle cx="42" cy="30" r="1.6" fill="#9d65ff"/><circle cx="46" cy="30" r="1.1" fill="#9d65ff"/><circle cx="50" cy="30" r="0.5" fill="#898989"/><circle cx="6" cy="34" r="0.3" fill="#7d7d7d"/><circle cx="10" cy="34" r="1.9" fill="#cecece"/><circle cx="18" cy="34" r="1.7" fill="#c6c6c6"/><circle cx="22" cy="34" r="1.5" fill="#b9b9b9"/><circle cx="26" cy="34" r="1.4" fill="#b3b3b3"/><circle cx="30" cy="34" r="1.6" fill="#bebebe"/><circle cx="34" cy="34" r="1.4" fill="#b5b5b5"/><circle cx="38" cy="34" r="0.9" fill="#9b9b9b"/><circle cx="42" cy="34" r="1.4" fill="#b6b6b6"/><circle cx="46" cy="34" r="1.4" fill="#b3b3b3"/><circle cx="18" cy="38" r="1.6" fill="#bdbdbd"/><circle cx="22" cy="38" r="0.6" fill="#8d8d8d"/><circle cx="26" cy="38" r="0.8" fill="#969696"/><circle cx="30" cy="38" r="1.7" fill="#c2c2c2"/><circle cx="34" cy="38" r="0.7" fill="#939393"/><circle cx="38" cy="38" r="0.7" fill="#939393"/><circle cx="42" cy="38" r="1.1" fill="#a5a5a5"/><circle cx="46" cy="38" r="1.0" fill="#a2a2a2"/><circle cx="54" cy="38" r="1.6" fill="#bfbfbf"/><circle cx="14" cy="42" r="0.6" fill="#8a8a8a"/><circle cx="18" cy="42" r="1.2" fill="#acacac"/><circle cx="54" cy="42" r="1.4" fill="#b7b7b7"/><circle cx="10" cy="46" r="1.3" fill="#aeaeae"/><circle cx="50" cy="46" r="0.8" fill="#969696"/><circle cx="58" cy="50" r="0.9" fill="#9c9c9c"/></svg>